<mxfile host="app.diagrams.net" agent="Mozilla/5.0 (X11; Linux x86_64) AppleWebKit/537.36 (KHTML, like Gecko) Chrome/129.0.0.0 Safari/537.36" version="24.8.3">
  <diagram name="Page-1" id="_HJv9iC_N_m42WFirWRR">
    <mxGraphModel dx="1434" dy="688" grid="1" gridSize="10" guides="1" tooltips="1" connect="1" arrows="1" fold="1" page="1" pageScale="1" pageWidth="850" pageHeight="1100" math="0" shadow="0">
      <root>
        <mxCell id="0" />
        <mxCell id="1" parent="0" />
        <mxCell id="3E58UIc-xbGT09Q-NaPW-5" value="" style="ellipse;html=1;shape=endState;fillColor=#000000;strokeColor=#ff0000;" vertex="1" parent="1">
          <mxGeometry x="225" y="1100" width="30" height="30" as="geometry" />
        </mxCell>
        <mxCell id="3E58UIc-xbGT09Q-NaPW-8" value="" style="endArrow=open;endFill=1;endSize=12;html=1;rounded=0;entryX=1.008;entryY=0.383;entryDx=0;entryDy=0;exitX=0;exitY=0.5;exitDx=0;exitDy=0;entryPerimeter=0;" edge="1" parent="1" source="3E58UIc-xbGT09Q-NaPW-10" target="3E58UIc-xbGT09Q-NaPW-11">
          <mxGeometry width="160" relative="1" as="geometry">
            <mxPoint x="200" y="180" as="sourcePoint" />
            <mxPoint x="200" y="240" as="targetPoint" />
          </mxGeometry>
        </mxCell>
        <mxCell id="3E58UIc-xbGT09Q-NaPW-9" value="Left pedal pressed once" style="text;html=1;align=center;verticalAlign=middle;whiteSpace=wrap;rounded=0;" vertex="1" parent="1">
          <mxGeometry x="320" y="255" width="80" height="30" as="geometry" />
        </mxCell>
        <mxCell id="3E58UIc-xbGT09Q-NaPW-10" value="Idle" style="rounded=1;whiteSpace=wrap;html=1;" vertex="1" parent="1">
          <mxGeometry x="430" y="295" width="120" height="60" as="geometry" />
        </mxCell>
        <mxCell id="3E58UIc-xbGT09Q-NaPW-11" value="Accelerating Forward" style="rounded=1;whiteSpace=wrap;html=1;" vertex="1" parent="1">
          <mxGeometry x="140" y="240" width="120" height="60" as="geometry" />
        </mxCell>
        <mxCell id="3E58UIc-xbGT09Q-NaPW-17" value="" style="endArrow=open;endFill=1;endSize=12;html=1;rounded=0;entryX=0.5;entryY=0;entryDx=0;entryDy=0;" edge="1" parent="1" source="3E58UIc-xbGT09Q-NaPW-11">
          <mxGeometry width="160" relative="1" as="geometry">
            <mxPoint x="199.5" y="300" as="sourcePoint" />
            <mxPoint x="199.5" y="360" as="targetPoint" />
          </mxGeometry>
        </mxCell>
        <mxCell id="3E58UIc-xbGT09Q-NaPW-18" value="Deaccelerating Forward" style="rounded=1;whiteSpace=wrap;html=1;" vertex="1" parent="1">
          <mxGeometry x="135" y="360" width="120" height="60" as="geometry" />
        </mxCell>
        <mxCell id="3E58UIc-xbGT09Q-NaPW-19" value="Right pedal pressed once" style="text;html=1;align=center;verticalAlign=middle;whiteSpace=wrap;rounded=0;" vertex="1" parent="1">
          <mxGeometry x="200" y="310" width="80" height="30" as="geometry" />
        </mxCell>
        <mxCell id="3E58UIc-xbGT09Q-NaPW-20" value="" style="endArrow=open;endFill=1;endSize=12;html=1;rounded=0;" edge="1" parent="1" source="3E58UIc-xbGT09Q-NaPW-18">
          <mxGeometry width="160" relative="1" as="geometry">
            <mxPoint x="200" y="420" as="sourcePoint" />
            <mxPoint x="195" y="480" as="targetPoint" />
          </mxGeometry>
        </mxCell>
        <mxCell id="3E58UIc-xbGT09Q-NaPW-21" value="Constant Forward" style="rounded=1;whiteSpace=wrap;html=1;" vertex="1" parent="1">
          <mxGeometry x="135" y="480" width="120" height="60" as="geometry" />
        </mxCell>
        <mxCell id="3E58UIc-xbGT09Q-NaPW-22" value="Right pedal held &amp;gt; 3 seconds" style="text;html=1;align=center;verticalAlign=middle;whiteSpace=wrap;rounded=0;" vertex="1" parent="1">
          <mxGeometry x="200" y="430" width="90" height="30" as="geometry" />
        </mxCell>
        <mxCell id="3E58UIc-xbGT09Q-NaPW-23" value="" style="endArrow=open;endFill=1;endSize=12;html=1;rounded=0;entryX=0.067;entryY=0.95;entryDx=0;entryDy=0;entryPerimeter=0;" edge="1" parent="1" source="3E58UIc-xbGT09Q-NaPW-21" target="3E58UIc-xbGT09Q-NaPW-10">
          <mxGeometry width="160" relative="1" as="geometry">
            <mxPoint x="194.5" y="540" as="sourcePoint" />
            <mxPoint x="190" y="610" as="targetPoint" />
          </mxGeometry>
        </mxCell>
        <mxCell id="3E58UIc-xbGT09Q-NaPW-24" value="Right pedal pressed&amp;nbsp;" style="text;html=1;align=center;verticalAlign=middle;whiteSpace=wrap;rounded=0;" vertex="1" parent="1">
          <mxGeometry x="310" y="430" width="80" height="30" as="geometry" />
        </mxCell>
        <mxCell id="3E58UIc-xbGT09Q-NaPW-26" value="" style="endArrow=open;endFill=1;endSize=12;html=1;rounded=0;exitX=0.425;exitY=1.067;exitDx=0;exitDy=0;exitPerimeter=0;" edge="1" parent="1" source="3E58UIc-xbGT09Q-NaPW-10">
          <mxGeometry width="160" relative="1" as="geometry">
            <mxPoint x="194.5" y="660" as="sourcePoint" />
            <mxPoint x="470" y="500" as="targetPoint" />
          </mxGeometry>
        </mxCell>
        <mxCell id="3E58UIc-xbGT09Q-NaPW-27" value="Left pedal held &amp;gt; 3 seconds" style="text;html=1;align=center;verticalAlign=middle;whiteSpace=wrap;rounded=0;" vertex="1" parent="1">
          <mxGeometry x="480" y="430" width="90" height="30" as="geometry" />
        </mxCell>
        <mxCell id="3E58UIc-xbGT09Q-NaPW-28" value="Accelerating backwards" style="rounded=1;whiteSpace=wrap;html=1;" vertex="1" parent="1">
          <mxGeometry x="400" y="500" width="120" height="60" as="geometry" />
        </mxCell>
        <mxCell id="3E58UIc-xbGT09Q-NaPW-29" value="Right pedal held &amp;gt; 3 seconds" style="text;html=1;align=center;verticalAlign=middle;whiteSpace=wrap;rounded=0;" vertex="1" parent="1">
          <mxGeometry x="350" y="660" width="90" height="30" as="geometry" />
        </mxCell>
        <mxCell id="3E58UIc-xbGT09Q-NaPW-30" value="" style="endArrow=open;endFill=1;endSize=12;html=1;rounded=0;entryX=0.5;entryY=0;entryDx=0;entryDy=0;" edge="1" parent="1" source="3E58UIc-xbGT09Q-NaPW-28" target="3E58UIc-xbGT09Q-NaPW-33">
          <mxGeometry width="160" relative="1" as="geometry">
            <mxPoint x="194.5" y="780" as="sourcePoint" />
            <mxPoint x="194.5" y="840" as="targetPoint" />
          </mxGeometry>
        </mxCell>
        <mxCell id="3E58UIc-xbGT09Q-NaPW-33" value="Constant Backward" style="rounded=1;whiteSpace=wrap;html=1;" vertex="1" parent="1">
          <mxGeometry x="230" y="700" width="120" height="60" as="geometry" />
        </mxCell>
        <mxCell id="3E58UIc-xbGT09Q-NaPW-34" value="" style="endArrow=open;endFill=1;endSize=12;html=1;rounded=0;" edge="1" parent="1" target="3E58UIc-xbGT09Q-NaPW-36">
          <mxGeometry width="160" relative="1" as="geometry">
            <mxPoint x="280" y="760" as="sourcePoint" />
            <mxPoint x="280.03999999999996" y="820" as="targetPoint" />
          </mxGeometry>
        </mxCell>
        <mxCell id="3E58UIc-xbGT09Q-NaPW-35" value="Right pedal pressed" style="text;html=1;align=center;verticalAlign=middle;whiteSpace=wrap;rounded=0;" vertex="1" parent="1">
          <mxGeometry x="290" y="770" width="90" height="30" as="geometry" />
        </mxCell>
        <mxCell id="3E58UIc-xbGT09Q-NaPW-36" value="Deaccelarating Backward" style="rounded=1;whiteSpace=wrap;html=1;" vertex="1" parent="1">
          <mxGeometry x="190" y="830" width="120" height="60" as="geometry" />
        </mxCell>
        <mxCell id="3E58UIc-xbGT09Q-NaPW-37" value="" style="endArrow=open;endFill=1;endSize=12;html=1;rounded=0;" edge="1" parent="1" source="3E58UIc-xbGT09Q-NaPW-36" target="3E58UIc-xbGT09Q-NaPW-40">
          <mxGeometry width="160" relative="1" as="geometry">
            <mxPoint x="195" y="1020" as="sourcePoint" />
            <mxPoint x="190" y="1070" as="targetPoint" />
          </mxGeometry>
        </mxCell>
        <mxCell id="3E58UIc-xbGT09Q-NaPW-39" value="Speed=0" style="text;html=1;align=center;verticalAlign=middle;whiteSpace=wrap;rounded=0;" vertex="1" parent="1">
          <mxGeometry x="230" y="920" width="90" height="30" as="geometry" />
        </mxCell>
        <mxCell id="3E58UIc-xbGT09Q-NaPW-40" value="Idle" style="rounded=1;whiteSpace=wrap;html=1;" vertex="1" parent="1">
          <mxGeometry x="180" y="980" width="120" height="60" as="geometry" />
        </mxCell>
        <mxCell id="3E58UIc-xbGT09Q-NaPW-42" value="" style="endArrow=open;endFill=1;endSize=12;html=1;rounded=0;entryX=0.5;entryY=0;entryDx=0;entryDy=0;" edge="1" parent="1" source="3E58UIc-xbGT09Q-NaPW-40" target="3E58UIc-xbGT09Q-NaPW-5">
          <mxGeometry width="160" relative="1" as="geometry">
            <mxPoint x="189" y="1130" as="sourcePoint" />
            <mxPoint x="189" y="1180" as="targetPoint" />
          </mxGeometry>
        </mxCell>
        <mxCell id="3E58UIc-xbGT09Q-NaPW-43" value="Emergency Stop" style="rounded=1;whiteSpace=wrap;html=1;" vertex="1" parent="1">
          <mxGeometry x="600" y="660" width="120" height="60" as="geometry" />
        </mxCell>
        <mxCell id="3E58UIc-xbGT09Q-NaPW-44" value="" style="endArrow=open;endFill=1;endSize=12;html=1;rounded=0;entryX=0.033;entryY=0.383;entryDx=0;entryDy=0;entryPerimeter=0;exitX=1;exitY=0.75;exitDx=0;exitDy=0;" edge="1" parent="1" source="3E58UIc-xbGT09Q-NaPW-28" target="3E58UIc-xbGT09Q-NaPW-43">
          <mxGeometry width="160" relative="1" as="geometry">
            <mxPoint x="250" y="760" as="sourcePoint" />
            <mxPoint x="415" y="760" as="targetPoint" />
          </mxGeometry>
        </mxCell>
        <mxCell id="3E58UIc-xbGT09Q-NaPW-45" value="Button 2 pressed" style="text;html=1;align=center;verticalAlign=middle;whiteSpace=wrap;rounded=0;" vertex="1" parent="1">
          <mxGeometry x="550" y="580" width="90" height="30" as="geometry" />
        </mxCell>
        <mxCell id="3E58UIc-xbGT09Q-NaPW-46" value="" style="endArrow=open;endFill=1;endSize=12;html=1;rounded=0;entryX=1.017;entryY=0.617;entryDx=0;entryDy=0;entryPerimeter=0;" edge="1" parent="1" source="3E58UIc-xbGT09Q-NaPW-43" target="3E58UIc-xbGT09Q-NaPW-40">
          <mxGeometry width="160" relative="1" as="geometry">
            <mxPoint x="489.5" y="800" as="sourcePoint" />
            <mxPoint x="489.5" y="860" as="targetPoint" />
            <Array as="points">
              <mxPoint x="640" y="1010" />
            </Array>
          </mxGeometry>
        </mxCell>
        <mxCell id="3E58UIc-xbGT09Q-NaPW-48" value="Button 2 pressed" style="text;html=1;align=center;verticalAlign=middle;whiteSpace=wrap;rounded=0;" vertex="1" parent="1">
          <mxGeometry x="660" y="880" width="90" height="30" as="geometry" />
        </mxCell>
        <mxCell id="3E58UIc-xbGT09Q-NaPW-49" value="&lt;span style=&quot;font-size: 17px;&quot;&gt;Assumptions made&lt;/span&gt;&lt;div style=&quot;font-size: 17px;&quot;&gt;- Button 2 is for emergency stop, and also transitions to idle state&lt;/div&gt;&lt;div style=&quot;font-size: 17px;&quot;&gt;- Any state can transition to emergency stop&lt;/div&gt;&lt;div style=&quot;font-size: 17px;&quot;&gt;- Starts at idle state and ends at idle start&lt;/div&gt;&lt;div style=&quot;font-size: 17px;&quot;&gt;- The cameras and drill work when in idle state&lt;/div&gt;&lt;div style=&quot;font-size: 17px;&quot;&gt;- When the right pedal is pressed once after constant backward state it decelerates backwards&lt;/div&gt;" style="text;html=1;align=left;verticalAlign=middle;whiteSpace=wrap;rounded=0;" vertex="1" parent="1">
          <mxGeometry x="190" y="1170" width="460" height="200" as="geometry" />
        </mxCell>
        <mxCell id="3E58UIc-xbGT09Q-NaPW-52" value="" style="ellipse;html=1;shape=startState;fillColor=#000000;strokeColor=#ff0000;" vertex="1" parent="1">
          <mxGeometry x="480" y="205" width="30" height="30" as="geometry" />
        </mxCell>
        <mxCell id="3E58UIc-xbGT09Q-NaPW-53" value="" style="edgeStyle=orthogonalEdgeStyle;html=1;verticalAlign=bottom;endArrow=open;endSize=8;strokeColor=#ff0000;rounded=0;" edge="1" source="3E58UIc-xbGT09Q-NaPW-52" parent="1">
          <mxGeometry relative="1" as="geometry">
            <mxPoint x="495" y="295" as="targetPoint" />
          </mxGeometry>
        </mxCell>
      </root>
    </mxGraphModel>
  </diagram>
</mxfile>
